<?xml version="1.0" encoding="utf-8"?>
<!-- Generator: Adobe Illustrator 16.0.2, SVG Export Plug-In . SVG Version: 6.00 Build 0)  -->
<!DOCTYPE svg PUBLIC "-//W3C//DTD SVG 1.1//EN" "http://www.w3.org/Graphics/SVG/1.1/DTD/svg11.dtd">
<svg version="1.1" id="Layer_1" xmlns="http://www.w3.org/2000/svg" xmlns:xlink="http://www.w3.org/1999/xlink" x="0px" y="0px"
	 width="200px" height="163.334px" viewBox="0 0 200 163.334" enable-background="new 0 0 200 163.334" xml:space="preserve">
<path fill="#2F3435" stroke="#000000" stroke-miterlimit="10" d="M75.863,74.005c0.54-0.475,1.432-0.342,1.994,0.297l0,0
	c0.561,0.639,0.579,1.539,0.04,2.016l-9.124,8.019c-0.54,0.475-1.432,0.343-1.993-0.297l0,0c-0.561-0.637-0.579-1.538-0.039-2.015
	L75.863,74.005z"/>
<path fill="#2F3435" stroke="#000000" stroke-miterlimit="10" d="M131.956,15.242c0.54-0.475,1.432-0.342,1.994,0.297l0,0
	c0.562,0.639,0.578,1.539,0.039,2.015l-9.123,8.019c-0.539,0.475-1.431,0.343-1.993-0.297l0,0c-0.561-0.637-0.578-1.539-0.039-2.015
	L131.956,15.242z"/>
<path fill="#2F3435" stroke="#000000" stroke-miterlimit="10" d="M102.117,84.083c-0.038-0.717,0.62-1.336,1.468-1.382l0,0
	c0.85-0.045,1.567,0.498,1.609,1.218l0.647,12.129c0.04,0.718-0.618,1.336-1.466,1.38l0,0c-0.848,0.046-1.567-0.497-1.606-1.217
	L102.117,84.083z"/>
<path fill="#2F3435" stroke="#000000" stroke-miterlimit="10" d="M99.758,4.551c-0.038-0.717,0.62-1.336,1.468-1.382l0,0
	c0.851-0.045,1.567,0.498,1.609,1.217l0.647,12.129c0.04,0.718-0.617,1.336-1.466,1.38l0,0c-0.848,0.046-1.567-0.497-1.606-1.217
	L99.758,4.551z"/>
<path fill="#2F3435" stroke="#000000" stroke-miterlimit="10" d="M134.88,49.642c-0.718,0.019-1.319-0.656-1.34-1.505l0,0
	c-0.022-0.852,0.54-1.554,1.262-1.576l12.142-0.312c0.719-0.02,1.318,0.654,1.338,1.503l0,0c0.024,0.849-0.54,1.553-1.26,1.572
	L134.88,49.642z"/>
<path fill="#2F3435" stroke="#000000" stroke-miterlimit="10" d="M127.373,72.119c-0.561-0.451-0.582-1.355-0.048-2.015l0,0
	c0.533-0.664,1.418-0.834,1.981-0.384l9.454,7.625c0.562,0.45,0.582,1.353,0.046,2.013l0,0c-0.531,0.663-1.417,0.833-1.978,0.382
	L127.373,72.119z"/>
<path fill="#2F3435" stroke="#000000" stroke-miterlimit="10" d="M99.497,17.319c-10.214,0-19.356,4.567-25.514,11.764
	c-0.033-0.036-0.048-0.083-0.086-0.116l-9.312-7.798c-0.553-0.461-1.441-0.307-1.986,0.344c-0.546,0.653-0.541,1.554,0.009,2.015
	l9.313,7.798c0.066,0.055,0.148,0.073,0.224,0.111c-3.469,4.867-5.667,10.697-6.123,17.012l-11.688,0.344
	c-0.72,0.022-1.281,0.728-1.256,1.576c0.026,0.85,0.627,1.521,1.346,1.5l11.517-0.339c0.343,18.244,15.229,32.931,33.556,32.931
	c18.541,0,33.571-15.031,33.571-33.572S118.037,17.319,99.497,17.319z"/>
<circle fill="#FFFFFF" stroke="#000000" stroke-miterlimit="10" cx="102.592" cy="50.596" r="33.277"/>
<circle fill="#2F3435" stroke="#000000" stroke-miterlimit="10" cx="102.802" cy="51.481" r="23.25"/>
<circle fill="#FFFFFF" stroke="#000000" stroke-miterlimit="10" cx="104.946" cy="51.277" r="23.046"/>
<path display="none" fill="#2F3435" d="M105.046,42.185c0.468,0.391,0.471,1.155,0.008,1.708l0,0
	c-0.462,0.552-1.215,0.683-1.684,0.292l-7.895-6.611c-0.467-0.391-0.471-1.155-0.008-1.708l0,0c0.462-0.552,1.215-0.683,1.684-0.292
	L105.046,42.185z"/>
<circle fill="none" stroke="#1F5990" stroke-miterlimit="10" cx="79.827" cy="34.356" r="4.007"/>
<circle fill="none" stroke="#000000" stroke-miterlimit="10" cx="74.437" cy="49.643" r="3.955"/>
<circle fill="none" stroke="#000000" stroke-miterlimit="10" cx="103.484" cy="79.17" r="3.954"/>
<circle fill="none" stroke="#000000" stroke-miterlimit="10" cx="131.947" cy="48.888" r="3.954"/>
<circle fill="none" stroke="#000000" stroke-miterlimit="10" cx="101.621" cy="22.946" r="3.955"/>
<circle fill="none" stroke="#1F5990" stroke-miterlimit="10" cx="82.246" cy="70.648" r="3.269"/>
<circle fill="none" stroke="#1F5990" stroke-miterlimit="10" cx="126.052" cy="68.315" r="3.269"/>
<circle fill="none" stroke="#1F5990" stroke-miterlimit="10" cx="120.052" cy="28.23" r="3.269"/>
<path fill="#1461A6" stroke="#225990" stroke-miterlimit="10" d="M96.894,51.53c0,0,5.799-7.077,10.714-7.471l-3.489-9.044
	l-2.703,10.322H88.932L96.894,51.53z"/>
<polygon fill="#1461A6" stroke="#225990" stroke-miterlimit="10" points="105.421,57.379 110.729,54.651 113.825,64.383 "/>
<path fill="#2F3435" stroke="#000000" stroke-miterlimit="10" d="M120.461,44.772c-0.41-0.039-1.033,1.298-1.185,1.595
	c-0.33,0.652-0.444,1.337-1.248,1.54c-1.157,0.291-2.587,0.079-3.786,0.168c-3.019,0.226-6.05,0.835-8.835,2.045
	c-3.251,1.412-6.078,3.716-7.733,6.89c-0.21,0.401-0.4,0.813-0.57,1.231c-0.132,0.325-0.228,1.03-0.456,1.276
	c0.003-0.003,11.945-12.901,20.716-9.584c0,0-2.064,1.917-1.843,3.022c0,0-10.543-1.401-21.085,10.911
	C94.436,63.867,95.1,42.339,120.461,44.772z"/>
<g>
	<g>
		<path fill="#E4140A" d="M50.98,142.945c-0.629,0-1.253-0.037-1.872-0.109c-0.619-0.074-1.225-0.175-1.817-0.3
			c-0.592-0.126-1.177-0.27-1.753-0.433c-0.577-0.162-1.143-0.332-1.699-0.511l-0.376-6.135h1.053l1.399,3.13
			c0.032,0.063,0.076,0.134,0.135,0.214c0.057,0.078,0.12,0.156,0.188,0.234c0.068,0.08,0.137,0.15,0.205,0.213
			s0.128,0.11,0.181,0.143c0.378,0.251,0.799,0.475,1.266,0.668c0.466,0.193,0.936,0.359,1.408,0.495s0.92,0.24,1.344,0.314
			c0.425,0.073,0.789,0.11,1.093,0.11c0.598,0,1.132-0.097,1.604-0.291c0.471-0.193,0.874-0.456,1.203-0.787
			c0.331-0.329,0.585-0.715,0.764-1.155c0.178-0.44,0.268-0.906,0.268-1.399c0-0.409-0.055-0.779-0.166-1.109
			c-0.109-0.331-0.28-0.632-0.51-0.904c-0.231-0.273-0.517-0.52-0.858-0.739c-0.34-0.221-0.746-0.425-1.219-0.613
			c-0.398-0.158-0.793-0.294-1.188-0.409c-0.393-0.115-0.786-0.228-1.18-0.339c-0.393-0.109-0.783-0.225-1.171-0.346
			c-0.388-0.12-0.775-0.259-1.164-0.416c-0.639-0.262-1.206-0.593-1.699-0.991s-0.904-0.847-1.233-1.345
			c-0.331-0.498-0.583-1.035-0.756-1.612c-0.173-0.576-0.259-1.18-0.259-1.809c0-0.598,0.092-1.172,0.275-1.722
			c0.183-0.551,0.442-1.063,0.779-1.533c0.335-0.473,0.736-0.904,1.203-1.299c0.466-0.393,0.988-0.726,1.565-0.999
			c0.576-0.271,1.197-0.484,1.864-0.637c0.666-0.15,1.36-0.228,2.084-0.228c0.639,0,1.271,0.026,1.895,0.079
			c0.623,0.052,1.225,0.125,1.8,0.22c0.577,0.095,1.125,0.204,1.644,0.331c0.52,0.125,0.999,0.262,1.438,0.409v5.661h-1.053
			l-1.243-2.909c-0.063-0.146-0.162-0.286-0.299-0.417c-0.136-0.132-0.261-0.239-0.376-0.323c-0.252-0.188-0.559-0.352-0.92-0.487
			c-0.362-0.136-0.734-0.249-1.116-0.339c-0.384-0.088-0.756-0.154-1.118-0.195c-0.362-0.043-0.662-0.063-0.904-0.063
			c-0.524,0-0.999,0.084-1.422,0.252c-0.425,0.167-0.785,0.394-1.079,0.677c-0.293,0.282-0.518,0.604-0.676,0.967
			c-0.157,0.361-0.236,0.731-0.236,1.108c0,0.409,0.047,0.792,0.142,1.149c0.095,0.355,0.252,0.684,0.472,0.982
			c0.22,0.298,0.506,0.565,0.857,0.802c0.351,0.236,0.789,0.448,1.313,0.637c0.378,0.137,0.752,0.259,1.125,0.37
			c0.372,0.11,0.748,0.22,1.125,0.33c0.376,0.109,0.762,0.23,1.155,0.362c0.393,0.131,0.805,0.285,1.235,0.464
			c0.514,0.21,1.02,0.485,1.517,0.825c0.499,0.341,0.941,0.75,1.329,1.227c0.389,0.478,0.703,1.028,0.944,1.651
			c0.242,0.625,0.361,1.319,0.361,2.084c0,0.828-0.167,1.648-0.503,2.462c-0.335,0.813-0.861,1.539-1.58,2.179
			c-0.718,0.639-1.638,1.158-2.76,1.556C53.884,142.746,52.542,142.945,50.98,142.945z"/>
		<path fill="#E4140A" d="M73.785,141.515l2.312-0.582c0.231-0.053,0.412-0.163,0.543-0.331c0.13-0.168,0.196-0.367,0.196-0.598
			v-17.489h-4.608c-0.209,0-0.361,0.052-0.456,0.157c-0.094,0.104-0.168,0.236-0.22,0.393l-1.291,3.477h-1.054v-5.756h19.771v5.756
			h-1.054l-1.291-3.477c-0.052-0.156-0.123-0.288-0.212-0.393c-0.09-0.105-0.234-0.157-0.433-0.157h-4.686v17.489
			c0,0.242,0.076,0.443,0.228,0.606c0.152,0.162,0.327,0.27,0.526,0.322l2.312,0.582v0.943H73.785V141.515z"/>
		<path fill="#E4140A" d="M96.276,141.498l1.447-0.551c0.452-0.178,0.76-0.487,0.928-0.927l6.244-15.949l1.903-3.617h1.902
			l7.708,19.566c0.083,0.209,0.212,0.398,0.385,0.565c0.173,0.168,0.354,0.289,0.543,0.361l1.446,0.551v0.96h-9.468v-0.96
			l2.737-0.676l-2.359-5.993h-6.968l-2.281,5.93l2.675,0.739v0.96h-6.842V141.498z M109.017,133.1l-2.062-5.223l-0.802-2.123
			l-2.736,7.346H109.017z"/>
		<path fill="#E4140A" d="M126.3,141.498l1.998-0.582c0.209-0.063,0.386-0.175,0.527-0.338c0.141-0.163,0.212-0.358,0.212-0.59
			v-16.734c0-0.241-0.073-0.445-0.22-0.613c-0.147-0.168-0.32-0.277-0.52-0.331l-1.998-0.565v-0.959h9.468
			c1.134,0,2.129,0.072,2.99,0.22c0.859,0.146,1.601,0.349,2.225,0.605s1.14,0.556,1.549,0.896s0.733,0.71,0.976,1.108
			c0.241,0.398,0.411,0.815,0.512,1.251c0.099,0.436,0.148,0.867,0.148,1.297c0,0.892-0.157,1.662-0.472,2.313
			s-0.706,1.203-1.171,1.659c-0.468,0.457-0.974,0.825-1.519,1.108s-1.044,0.499-1.494,0.646l5.253,7.77
			c0.084,0.126,0.191,0.257,0.322,0.393c0.132,0.137,0.273,0.266,0.426,0.387c0.151,0.119,0.306,0.228,0.463,0.321
			s0.304,0.157,0.441,0.188l2.028,0.551v0.96h-5.033c-0.472,0-0.865-0.034-1.18-0.103s-0.59-0.178-0.825-0.33
			c-0.236-0.151-0.451-0.354-0.646-0.605c-0.193-0.253-0.405-0.562-0.637-0.929l-4.545-7.156l-2.077-0.565v7.219
			c0,0.241,0.062,0.443,0.182,0.605s0.285,0.271,0.495,0.322l2.328,0.582v0.96H126.3V141.498z M135.596,131.401
			c0.639,0,1.195-0.129,1.668-0.386c0.471-0.257,0.863-0.599,1.179-1.022c0.315-0.425,0.548-0.91,0.7-1.454
			c0.151-0.545,0.228-1.102,0.228-1.667c0-1.531-0.352-2.646-1.054-3.344c-0.703-0.696-1.693-1.046-2.973-1.046h-1.841v8.761
			c0.095,0.022,0.234,0.039,0.417,0.056c0.184,0.016,0.381,0.031,0.59,0.047c0.21,0.017,0.415,0.029,0.614,0.039
			C135.322,131.396,135.48,131.401,135.596,131.401z"/>
	</g>
</g>
<g>
	<g>
		<path fill="#143283" d="M7.055,155.531v-7.016H4.549v-1.429h6.71v1.429h-2.5v7.016H7.055z"/>
		<path fill="#143283" d="M12.359,155.531v-8.444h6.261v1.429h-4.556v1.872h4.239v1.423h-4.239v2.298h4.717v1.423H12.359z"/>
		<path fill="#143283" d="M25.63,152.427l1.653,0.524c-0.253,0.921-0.675,1.605-1.265,2.053c-0.589,0.447-1.337,0.671-2.243,0.671
			c-1.122,0-2.043-0.383-2.765-1.148c-0.722-0.767-1.083-1.814-1.083-3.143c0-1.405,0.363-2.497,1.089-3.273
			c0.726-0.778,1.68-1.167,2.862-1.167c1.033,0,1.872,0.306,2.517,0.916c0.384,0.36,0.672,0.879,0.864,1.555l-1.688,0.403
			c-0.1-0.438-0.308-0.783-0.625-1.037c-0.316-0.253-0.701-0.38-1.155-0.38c-0.626,0-1.133,0.225-1.523,0.674
			c-0.39,0.449-0.584,1.178-0.584,2.184c0,1.067,0.192,1.828,0.576,2.28c0.384,0.453,0.883,0.68,1.497,0.68
			c0.454,0,0.843-0.144,1.169-0.432S25.488,153.045,25.63,152.427z"/>
		<path fill="#143283" d="M28.752,155.531v-8.444h1.705v3.324h3.341v-3.324h1.705v8.444h-1.705v-3.692h-3.341v3.692H28.752z"/>
		<path fill="#143283" d="M37.282,155.531v-8.444h1.659l3.456,5.64v-5.64h1.584v8.444h-1.71l-3.404-5.507v5.507H37.282z"/>
		<path fill="#143283" d="M45.731,155.531v-8.444h1.705v8.444H45.731z"/>
		<path fill="#143283" d="M54.463,152.427l1.653,0.524c-0.253,0.921-0.675,1.605-1.264,2.053s-1.337,0.671-2.243,0.671
			c-1.122,0-2.043-0.383-2.765-1.148c-0.722-0.767-1.083-1.814-1.083-3.143c0-1.405,0.363-2.497,1.088-3.273
			c0.726-0.778,1.68-1.167,2.863-1.167c1.033,0,1.872,0.306,2.517,0.916c0.384,0.36,0.672,0.879,0.864,1.555l-1.688,0.403
			c-0.1-0.438-0.308-0.783-0.625-1.037c-0.317-0.253-0.702-0.38-1.155-0.38c-0.626,0-1.134,0.225-1.523,0.674
			c-0.39,0.449-0.584,1.178-0.584,2.184c0,1.067,0.191,1.828,0.576,2.28c0.384,0.453,0.883,0.68,1.498,0.68
			c0.453,0,0.843-0.144,1.169-0.432S54.321,153.045,54.463,152.427z"/>
		<path fill="#143283" d="M65.194,155.531h-1.855l-0.737-1.918h-3.375l-0.697,1.918h-1.809l3.289-8.444h1.803L65.194,155.531z
			 M62.055,152.19l-1.164-3.133l-1.14,3.133H62.055z"/>
		<path fill="#143283" d="M66.144,155.531v-8.375h1.705v6.952h4.239v1.423H66.144z"/>
		<path fill="#143283" d="M83.838,154.5l-0.979,1.25c-0.48-0.233-0.941-0.557-1.382-0.968c-0.342,0.308-0.705,0.533-1.088,0.68
			c-0.384,0.146-0.841,0.219-1.371,0.219c-1.052,0-1.843-0.296-2.373-0.887c-0.411-0.457-0.616-0.982-0.616-1.578
			c0-0.542,0.161-1.027,0.484-1.461c0.322-0.431,0.804-0.807,1.446-1.125c-0.288-0.343-0.505-0.667-0.651-0.976
			c-0.146-0.311-0.219-0.603-0.219-0.879c0-0.511,0.205-0.944,0.613-1.299c0.41-0.355,0.992-0.533,1.749-0.533
			c0.729,0,1.299,0.187,1.71,0.559s0.616,0.827,0.616,1.365c0,0.342-0.101,0.666-0.305,0.974c-0.204,0.308-0.614,0.654-1.232,1.042
			l1.175,1.55c0.138-0.245,0.257-0.567,0.357-0.962l1.463,0.334c-0.146,0.519-0.273,0.897-0.38,1.137
			c-0.107,0.241-0.222,0.441-0.346,0.603c0.181,0.169,0.414,0.354,0.7,0.557C83.494,154.301,83.703,154.435,83.838,154.5z
			 M78.798,151.666c-0.372,0.188-0.651,0.415-0.835,0.68c-0.184,0.266-0.276,0.536-0.276,0.813c0,0.349,0.114,0.635,0.343,0.854
			c0.228,0.222,0.535,0.332,0.918,0.332c0.253,0,0.498-0.05,0.731-0.149c0.234-0.101,0.489-0.266,0.766-0.496L78.798,151.666z
			 M79.432,149.909l0.438-0.334c0.323-0.25,0.484-0.497,0.484-0.743c0-0.207-0.077-0.383-0.234-0.529
			c-0.154-0.146-0.365-0.219-0.63-0.219c-0.257,0-0.458,0.064-0.604,0.192c-0.146,0.129-0.219,0.277-0.219,0.446
			c0,0.2,0.123,0.441,0.368,0.727L79.432,149.909z"/>
		<path fill="#143283" d="M88.141,155.531v-8.444h2.552l1.532,5.76l1.515-5.76h2.557v8.444h-1.584v-6.646l-1.676,6.646h-1.642
			l-1.67-6.646v6.646H88.141z"/>
		<path fill="#143283" d="M105.604,155.531h-1.854l-0.737-1.918h-3.375l-0.697,1.918h-1.809l3.289-8.444h1.803L105.604,155.531z
			 M102.465,152.19l-1.163-3.133l-1.141,3.133H102.465z"/>
		<path fill="#143283" d="M106.515,155.531v-8.444h3.588c0.902,0,1.559,0.076,1.967,0.229c0.41,0.151,0.737,0.421,0.982,0.809
			c0.245,0.389,0.368,0.832,0.368,1.331c0,0.633-0.187,1.156-0.559,1.569s-0.93,0.673-1.67,0.78
			c0.368,0.215,0.673,0.451,0.912,0.708c0.241,0.257,0.564,0.715,0.971,1.371l1.031,1.647h-2.039l-1.232-1.838
			c-0.438-0.656-0.737-1.069-0.898-1.24c-0.161-0.172-0.332-0.288-0.513-0.353c-0.181-0.063-0.467-0.095-0.858-0.095h-0.346v3.525
			H106.515z M108.219,150.658h1.262c0.818,0,1.328-0.034,1.532-0.104s0.362-0.188,0.478-0.357c0.115-0.169,0.173-0.38,0.173-0.633
			c0-0.285-0.075-0.515-0.228-0.689c-0.151-0.174-0.365-0.284-0.642-0.33c-0.139-0.02-0.553-0.029-1.244-0.029h-1.331V150.658z"/>
		<path fill="#143283" d="M114.976,155.531v-8.444h1.705v8.444H114.976z"/>
		<path fill="#143283" d="M118.321,155.531v-8.444h1.659l3.456,5.64v-5.64h1.584v8.444h-1.711l-3.404-5.507v5.507H118.321z"/>
		<path fill="#143283" d="M126.823,155.531v-8.444h6.261v1.429h-4.556v1.872h4.239v1.423h-4.239v2.298h4.717v1.423H126.823z"/>
		<path fill="#143283" d="M137.536,152.784l1.659-0.162c0.1,0.557,0.302,0.966,0.608,1.228c0.304,0.261,0.716,0.392,1.234,0.392
			c0.55,0,0.963-0.116,1.242-0.349c0.277-0.232,0.417-0.504,0.417-0.815c0-0.199-0.059-0.369-0.176-0.509
			c-0.117-0.141-0.322-0.263-0.613-0.366c-0.199-0.069-0.654-0.192-1.365-0.369c-0.914-0.227-1.556-0.504-1.924-0.835
			c-0.519-0.464-0.777-1.031-0.777-1.699c0-0.43,0.122-0.831,0.365-1.207c0.244-0.373,0.596-0.659,1.055-0.854
			c0.459-0.196,1.013-0.294,1.661-0.294c1.06,0,1.857,0.232,2.394,0.697c0.535,0.464,0.817,1.085,0.844,1.86l-1.705,0.074
			c-0.072-0.434-0.229-0.746-0.47-0.935c-0.24-0.191-0.6-0.286-1.08-0.286c-0.495,0-0.883,0.102-1.163,0.306
			c-0.181,0.13-0.271,0.305-0.271,0.523c0,0.199,0.084,0.371,0.253,0.513c0.216,0.181,0.737,0.369,1.567,0.564
			c0.829,0.196,1.442,0.398,1.841,0.607c0.396,0.21,0.707,0.495,0.933,0.859c0.224,0.361,0.337,0.811,0.337,1.344
			c0,0.484-0.135,0.937-0.403,1.359s-0.648,0.736-1.141,0.941c-0.492,0.206-1.104,0.309-1.838,0.309
			c-1.067,0-1.887-0.246-2.459-0.739C137.989,154.447,137.648,153.729,137.536,152.784z"/>
		<path fill="#143283" d="M145.836,155.531v-8.444h6.261v1.429h-4.556v1.872h4.239v1.423h-4.239v2.298h4.717v1.423H145.836z"/>
		<path fill="#143283" d="M153.71,155.531v-8.444h3.588c0.902,0,1.559,0.076,1.967,0.229c0.41,0.151,0.737,0.421,0.982,0.809
			c0.245,0.389,0.368,0.832,0.368,1.331c0,0.633-0.187,1.156-0.559,1.569s-0.93,0.673-1.67,0.78
			c0.368,0.215,0.673,0.451,0.912,0.708c0.241,0.257,0.564,0.715,0.972,1.371l1.03,1.647h-2.039l-1.232-1.838
			c-0.438-0.656-0.737-1.069-0.898-1.24c-0.161-0.172-0.332-0.288-0.513-0.353c-0.181-0.063-0.467-0.095-0.858-0.095h-0.345v3.525
			H153.71z M155.415,150.658h1.261c0.818,0,1.328-0.034,1.532-0.104s0.363-0.188,0.479-0.357c0.115-0.169,0.173-0.38,0.173-0.633
			c0-0.285-0.076-0.515-0.229-0.689c-0.151-0.174-0.365-0.284-0.642-0.33c-0.139-0.02-0.553-0.029-1.244-0.029h-1.33V150.658z"/>
		<path fill="#143283" d="M164.164,155.531l-3.019-8.444h1.849l2.137,6.25l2.068-6.25h1.809l-3.024,8.444H164.164z"/>
		<path fill="#143283" d="M169.825,155.531v-8.444h1.705v8.444H169.825z"/>
		<path fill="#143283" d="M178.558,152.427l1.652,0.524c-0.253,0.921-0.675,1.605-1.265,2.053c-0.589,0.447-1.336,0.671-2.243,0.671
			c-1.12,0-2.042-0.383-2.765-1.148c-0.722-0.767-1.082-1.814-1.082-3.143c0-1.405,0.362-2.497,1.088-3.273
			c0.727-0.778,1.68-1.167,2.863-1.167c1.033,0,1.871,0.306,2.517,0.916c0.384,0.36,0.672,0.879,0.864,1.555l-1.688,0.403
			c-0.101-0.438-0.308-0.783-0.626-1.037c-0.315-0.253-0.701-0.38-1.154-0.38c-0.625,0-1.134,0.225-1.522,0.674
			c-0.391,0.449-0.585,1.178-0.585,2.184c0,1.067,0.192,1.828,0.575,2.28c0.384,0.453,0.884,0.68,1.498,0.68
			c0.452,0,0.843-0.144,1.169-0.432S178.416,153.045,178.558,152.427z"/>
		<path fill="#143283" d="M181.673,155.531v-8.444h6.262v1.429h-4.557v1.872h4.239v1.423h-4.239v2.298h4.718v1.423H181.673z"/>
		<path fill="#143283" d="M189.109,152.784l1.658-0.162c0.101,0.557,0.302,0.966,0.608,1.228c0.305,0.261,0.717,0.392,1.235,0.392
			c0.549,0,0.963-0.116,1.241-0.349s0.417-0.504,0.417-0.815c0-0.199-0.059-0.369-0.175-0.509c-0.117-0.141-0.322-0.263-0.614-0.366
			c-0.199-0.069-0.654-0.192-1.364-0.369c-0.914-0.227-1.556-0.504-1.924-0.835c-0.519-0.464-0.778-1.031-0.778-1.699
			c0-0.43,0.122-0.831,0.365-1.207c0.244-0.373,0.596-0.659,1.056-0.854c0.458-0.196,1.013-0.294,1.661-0.294
			c1.06,0,1.856,0.232,2.394,0.697c0.534,0.464,0.816,1.085,0.843,1.86l-1.704,0.074c-0.073-0.434-0.229-0.746-0.471-0.935
			c-0.239-0.191-0.599-0.286-1.079-0.286c-0.495,0-0.884,0.102-1.163,0.306c-0.182,0.13-0.271,0.305-0.271,0.523
			c0,0.199,0.085,0.371,0.254,0.513c0.216,0.181,0.737,0.369,1.566,0.564c0.83,0.196,1.442,0.398,1.841,0.607
			c0.396,0.21,0.708,0.495,0.934,0.859c0.224,0.361,0.336,0.811,0.336,1.344c0,0.484-0.135,0.937-0.403,1.359
			s-0.648,0.736-1.14,0.941c-0.492,0.206-1.104,0.309-1.838,0.309c-1.067,0-1.887-0.246-2.459-0.739
			C189.562,154.447,189.221,153.729,189.109,152.784z"/>
	</g>
</g>
<rect x="3.902" y="143.929" width="190.358" height="0.352"/>
<rect x="3.902" y="160.446" width="190.358" height="0.352"/>
<g>
	<path fill-rule="evenodd" clip-rule="evenodd" d="M70.717,103.977c0.353,1.923,0.718,3.833,1.046,5.751
		c0.184,1.081,0.625,1.674,1.875,1.547c1.235-0.122,2.5-0.102,3.741-0.005c1.091,0.087,1.331-0.354,1.049-1.279
		c-0.13-0.426-0.227-0.936-0.52-1.219c-0.85-0.826-0.4-1.481,0.135-2.303c1.156,1.105,1.077,2.477,1.106,3.775
		c0.015,0.756,0.19,1.103,1,1.016c0.542-0.06,1.102,0.039,1.645-0.024c0.6-0.068,1.457,0.38,1.747-0.303
		c0.284-0.671,0.024-1.548-0.498-2.096c-0.841-0.88-0.512-1.547,0.126-2.347c1.1,1.08,1.054,2.411,1.068,3.673
		c0.012,0.823,0.195,1.163,1.077,1.102c1.09-0.071,2.19-0.017,3.299-0.017c-0.056-0.466-0.421-0.469-0.675-0.507
		c-1.008-0.146-1.908-0.484-2.104-1.585c-0.214-1.197,0.164-2.295,1.051-3.142c0.807-0.77,1.689-0.527,2.286,0.59
		c0.583,1.099,0.675,2.303,0.569,3.504c-0.083,0.939,0.244,1.287,1.163,1.144c0.244-0.035,0.504-0.042,0.746,0.003
		c1.347,0.244,1.546-0.34,1.333-1.553c-0.389-2.209-0.605-4.45-0.921-6.674c-0.15-1.053-1.167-2.039-0.173-3.187
		c0.286,0.193,0.562,0.505,0.895,0.586c1.098,0.262,1.085,1.161,0.67,1.711c-0.645,0.864-0.388,1.659-0.282,2.505
		c0.299,2.375,0.603,4.751,0.932,7.121c0.147,1.062-0.269,1.327-1.312,1.319c-6.24-0.05-12.482-0.024-18.724-0.024
		c-2.136,0-2.39-0.192-3.016-2.284c-0.115-0.381-0.218-0.766-0.423-1.493c-0.884,1.407-2.053,1.513-3.405,1.235
		c-1.211-0.248-1.188-0.8-0.66-1.653c0.51-0.823,1.205-1.477,2.004-1.993c0.869-0.564,1.79-1.027,1.581-2.326
		C70.117,104.347,70.254,104.047,70.717,103.977z M88.917,109.364c-0.267-0.943-0.339-1.993-1.614-1.965
		c-0.561,0.013-0.708,0.563-0.569,0.998C87.072,109.477,87.929,109.517,88.917,109.364z M69.192,108.895
		c0.645-0.096,1.375-0.141,1.305-1.141c-0.026-0.339-0.066-0.808-0.568-0.607c-0.715,0.286-1.614,0.543-1.754,1.397
		C68.097,109.039,68.795,108.765,69.192,108.895z"/>
	<path fill-rule="evenodd" clip-rule="evenodd" d="M17.868,116.795c0.327-0.385,0.737-0.215,1.11-0.172
		c2.359,0.281,4.157-0.763,5.66-2.434c1.335-1.482,1.456-2.851,0.243-4.458c-0.667-0.881-0.633-1.581-0.034-2.422
		c0.925,0.792,1.414,1.777,1.478,2.982c0.026,0.487-0.021,0.987,0.765,0.97c2.215-0.038,4.432-0.014,7.009-0.014
		c-1.91-1.518-3.537-2.687-5.791-2.351c0.453-1.544,1.476-2.114,2.888-1.665c1.73,0.551,2.945,1.85,4.208,3.036
		c1.901,1.788,4.178,0.69,6.274,0.941c0.418,0.052,0.288-0.424,0.273-0.696c-0.036-0.657-0.162-1.337-0.625-1.803
		c-0.85-0.851-0.359-1.47,0.184-2.214c1.082,1.02,1.102,2.303,1.065,3.509c-0.032,1.119,0.389,1.39,1.375,1.251
		c0.391-0.053,0.799-0.042,1.194,0c0.703,0.073,0.827-0.233,0.732-0.869c-0.367-2.517-0.621-5.052-1.072-7.552
		c-0.177-0.979-0.915-1.868-0.162-2.968c0.536,0.324,1.352,0.553,1.675,1.081c0.372,0.612,0.028,1.366-0.538,1.956
		c-0.149,0.159,0.066,0.662,0.104,1.009c0.297,2.675,0.877,5.311,1.042,8.005c0.055,0.92-0.214,1.17-1.147,1.164
		c-6.035-0.045-12.07-0.014-18.106-0.035c-0.807-0.003-1.246,0.102-1.604,1.03C24.774,117.435,21.591,118.428,17.868,116.795z"/>
	<path fill-rule="evenodd" clip-rule="evenodd" d="M139.491,111.241c2.421,0,4.839,0,7.593,0c-1.896-1.552-3.572-2.688-5.903-2.347
		c0.892-1.765,1.885-2.183,3.43-1.527c1.502,0.639,2.674,1.758,3.78,2.89c1.516,1.552,3.358,0.846,5.079,0.958
		c0.574,0.033,0.364-0.515,0.306-0.789c-0.622-2.892-0.315-5.944-1.552-8.738c-0.237-0.537,0.058-1.175,0.22-1.753
		c1.779,0.846,1.769,0.843,1.248,2.977c-0.065,0.271,0.055,0.592,0.098,0.887c0.303,2.123,0.623,4.243,0.909,6.369
		c0.278,2.081,1.851,0.89,2.802,1.028c1.242,0.18,0.565-0.883,0.517-1.349c-0.244-2.281-0.57-4.551-0.882-6.825
		c-0.146-1.053-1.206-2.032-0.166-3.184c0.246,0.175,0.516,0.491,0.848,0.577c1.163,0.308,1.118,1.264,0.666,1.845
		c-0.53,0.68-0.391,1.252-0.308,1.904c0.326,2.572,0.662,5.142,1.004,7.71c0.118,0.871-0.139,1.211-1.114,1.208
		c-7.535-0.044-15.066-0.018-22.6-0.031c-1.777-0.001-2.143-0.466-1.936-2.307c1.686,0.982,3.519,0.318,5.277,0.487
		C139.035,111.234,139.263,111.235,139.491,111.241z"/>
	<path fill-rule="evenodd" clip-rule="evenodd" d="M196.077,113.003c-1.621-0.325-3.274,0.055-4.844-0.05
		c-3.892-0.256-7.742,0.367-11.62,0.149c-1.478-0.085-2.268-0.62-2.44-2.021c-0.188-1.534-0.296-3.076-0.441-4.616
		c-0.115-1.232-0.085-2.47-0.78-3.61c-0.49-0.81,0.497-1.115,0.819-1.917c0.725,2.27,0.661,4.361,0.723,6.431
		c0.11,3.873,0.098,3.879,3.928,3.879c0.448,0,0.904,0.047,1.346-0.011c0.603-0.078,1.459,0.372,1.752-0.296
		c0.294-0.667,0.031-1.55-0.489-2.096c-0.835-0.879-0.513-1.547,0.111-2.349c1.085,1.018,0.991,2.3,1.097,3.509
		c0.055,0.608-0.205,1.39,0.897,1.246c0.87-0.11,2.024,0.356,2.156-1.152c0.028-0.312-0.211-0.791,0.235-0.905
		c0.553-0.147,0.596,0.421,0.728,0.755c0.579,1.453,1.781,1.404,3.004,1.261c0.489-0.058,0.777-0.377,0.831-0.91
		c0.029-0.294-0.216-0.803,0.338-0.82c0.445-0.015,0.415,0.492,0.555,0.782c0.401,0.82,0.894,1.351,1.851,0.721
		C196.327,111.604,195.99,112.329,196.077,113.003z"/>
	<path fill-rule="evenodd" clip-rule="evenodd" d="M14.993,106.395c1.568,1.928,0.964,4.146,1.064,6.238
		c0.026,0.536-0.449,0.418-0.77,0.424c-1.794,0.008-3.588-0.01-5.382,0.008c-0.773,0.009-1.208-0.436-1.461-1.065
		c-0.333-0.822-0.596-1.678-0.934-2.642c-0.927,1.438-2.177,1.442-3.593,1.096c-0.85-0.206-0.934-0.576-0.6-1.259
		c0.498-1.021,1.319-1.75,2.232-2.365c0.813-0.55,1.766-0.932,1.501-2.22c-0.045-0.213,0.238-0.491,0.519-1.013
		c0.382,2.13,0.741,3.978,1.04,5.835c0.209,1.304,0.708,2.065,2.241,1.848c1.124-0.159,2.297-0.113,3.433-0.01
		c1.245,0.117,1.297-0.506,1.056-1.403c-0.09-0.331-0.171-0.737-0.402-0.951C14.015,108.057,14.397,107.281,14.993,106.395z
		 M4.963,108.817c0.654,0,1.217,0.098,1.729-0.024c0.689-0.163,0.946-0.714,0.651-1.379c-0.321-0.723-0.765-0.131-1.085,0.008
		C5.724,107.65,5.196,107.959,4.963,108.817z"/>
	<path fill-rule="evenodd" clip-rule="evenodd" d="M120.784,101.053c0.627,1.976,0.574,3.877,0.671,5.761
		c0.02,0.397-0.034,0.804,0.026,1.192c0.18,1.127-0.227,2.576,1.111,3.174c1.505,0.673,4.057-0.067,5.066-1.247
		c0.097-0.115,0.165-0.254,0.271-0.357c0.804-0.778,1.555-1.86,2.79-1.643c0.867,0.155,1.917,3.849,1.586,4.781
		c-0.178,0.5-0.549,0.333-0.855,0.337c-1.289,0.024-2.485-1.222-3.465-0.977c-1.069,0.268-2.067,0.999-3.314,0.999
		c-3.1-0.009-3.441-0.273-3.76-3.413c-0.15-1.483-0.186-2.979-0.32-4.466c-0.052-0.588-0.062-1.295-0.387-1.721
		C119.434,102.459,120.019,101.875,120.784,101.053z M130.053,108.847c-0.567,0.181-1.183,0.558-1.152,1.045
		c0.057,0.947,1.056,1.02,1.744,1.32c0.238,0.105,0.693,0.08,0.565-0.373C131.002,110.095,130.814,109.306,130.053,108.847z"/>
	<path fill-rule="evenodd" clip-rule="evenodd" d="M118.24,106.377c1.309,2.048,0.979,4.167,1.003,6.221
		c0.007,0.524-0.432,0.459-0.77,0.459c-3.192-0.006-6.391,0.119-9.575-0.057c-3.284-0.184-4.627-2.276-3.448-4.979
		c0.585,2.536,1.484,3.221,4.279,3.228c2.343,0.009,4.688,0,7.031,0c1.896,0,2.418-0.858,1.295-2.471
		C117.444,107.901,117.471,107.307,118.24,106.377z"/>
	<path fill-rule="evenodd" clip-rule="evenodd" d="M52.672,116.645c3.132,0.546,5.219-0.897,6.877-3.414
		c-0.973-0.455-2.303-0.322-2.595-1.666c-0.233-1.067-0.046-2.088,0.54-3.017c0.299-0.476,0.694-0.908,1.306-0.867
		c0.682,0.047,1.083,0.556,1.218,1.163c0.42,1.871,0.598,3.764-0.159,5.592C58.441,117.87,56.296,118.563,52.672,116.645z
		 M59.723,110.85c-0.214-0.59-0.313-1.288-1.122-1.383c-0.535-0.064-0.899,0.218-0.863,0.75c0.051,0.707,0.581,0.998,1.229,1.021
		C59.252,111.248,59.703,111.441,59.723,110.85z"/>
	<path fill-rule="evenodd" clip-rule="evenodd" d="M166.404,116.717c0.533-0.029,1.041-0.187,1.602-0.112
		c2.297,0.294,4.051-0.775,5.524-2.391c1.373-1.509,1.501-2.813,0.295-4.439c-0.639-0.859-0.717-1.567-0.121-2.405
		c1.869,1.576,2.275,5.697,0.759,7.733c-2.154,2.893-4.233,3.303-8.076,1.591L166.404,116.717z"/>
	<path fill-rule="evenodd" clip-rule="evenodd" d="M49.537,101.094c0.09,4.145,1.615,7.977,0.071,11.834
		c-0.208-3.251-0.599-6.472-1.006-9.694C48.508,102.481,48.755,101.889,49.537,101.094z"/>
	<path fill-rule="evenodd" clip-rule="evenodd" d="M96.786,112.936c-0.195-3.279-0.575-6.531-0.999-9.782
		c-0.1-0.757,0.25-1.31,0.906-2.104C96.809,105.194,98.391,109.037,96.786,112.936z"/>
	<path fill-rule="evenodd" clip-rule="evenodd" d="M139.491,111.241c-0.229-0.006-0.456-0.007-0.685-0.01
		c0.344-1.837-0.273-3.374-1.78-4.354c-0.926-0.601-0.844-1.152-0.525-2.033C139.19,106.245,139.165,108.826,139.491,111.241z"/>
	<path fill-rule="evenodd" clip-rule="evenodd" d="M196.077,113.003c-0.087-0.674,0.25-1.398-0.245-2.021
		c0.11-0.776-0.045-1.503-0.5-2.132c-0.473-0.656-0.14-1.082,0.393-1.682C196.508,109.185,196.658,111.068,196.077,113.003z"/>
	<path fill-rule="evenodd" clip-rule="evenodd" d="M69.104,101.729c0.368-0.522,0.02-1.557,1.023-1.584
		c0.387-0.009,0.884,0.244,1.071,0.664c0.179,0.401-0.173,0.751-0.382,1.046c-0.338,0.475-0.671-0.004-1.013-0.1
		c-0.228-0.062-0.458-0.438-0.728-0.059L69.104,101.729z"/>
	<path fill-rule="evenodd" clip-rule="evenodd" d="M87.38,101.213c0.525,0.318,1.275,0.339,1.292,0.957
		c0.01,0.356-0.172,1.099-0.804,1.038c-0.45-0.043-1.093-0.235-1.162-0.771C86.649,101.988,86.984,101.532,87.38,101.213z"/>
	<path fill-rule="evenodd" clip-rule="evenodd" d="M185.107,103.075c-0.373,0.376-0.265,1.171-0.936,1.021
		c-0.442-0.098-1.191-0.209-1.112-0.889c0.042-0.364,0.135-1.101,0.8-0.987C184.337,102.305,184.859,102.538,185.107,103.075z"/>
	<path fill-rule="evenodd" clip-rule="evenodd" d="M114.337,103.977c-0.312,0.351-0.218,1.124-0.887,1.03
		c-0.447-0.062-1.115-0.262-1.152-0.785c-0.026-0.395,0.19-1.112,0.743-1.104C113.523,103.123,114.101,103.372,114.337,103.977z"/>
	<path fill-rule="evenodd" clip-rule="evenodd" d="M40.736,116.862c-0.57-0.39-1.322-0.362-1.341-1.025
		c-0.011-0.363,0.173-1.017,0.679-1.025c0.52-0.009,1.197,0.239,1.287,0.8C41.417,115.979,40.971,116.425,40.736,116.862z"/>
	<path fill-rule="evenodd" clip-rule="evenodd" d="M4.951,102.953c-0.342-0.354-1.186-0.244-1.072-0.969
		c0.058-0.363,0.134-1.131,0.854-0.939c0.432,0.115,1.102,0.263,1.07,0.836C5.782,102.273,5.627,102.877,4.951,102.953z"/>
	<path fill-rule="evenodd" clip-rule="evenodd" d="M69.075,101.695c-0.453,0.334-0.197,1.437-1.173,1.158
		c-0.382-0.108-0.974-0.246-0.995-0.746c-0.015-0.337,0.25-0.768,0.521-1.014c0.385-0.351,0.704,0.138,1.047,0.27
		c0.222,0.085,0.418,0.239,0.629,0.363C69.104,101.729,69.075,101.695,69.075,101.695z"/>
	<path fill-rule="evenodd" clip-rule="evenodd" d="M13.53,115.673c-0.263,0.612,0.203,1.856-1.18,1.489
		c-0.367-0.097-1.172-0.21-0.736-1.088c0.341-0.681,0.685-0.888,1.338-0.408c0.148,0.111,0.389,0.351,0.603,0.027L13.53,115.673z"/>
	<path fill-rule="evenodd" clip-rule="evenodd" d="M76.596,116.298c-0.316,0.338-0.197,1.113-0.896,0.979
		c-0.446-0.087-1.103-0.282-1.117-0.802c-0.012-0.382,0.197-1.096,0.778-1.059C75.84,115.444,76.408,115.675,76.596,116.298z"/>
	<path fill-rule="evenodd" clip-rule="evenodd" d="M110.853,103.979c0.338,0.355,1.191,0.248,1.028,1.007
		c-0.078,0.375-0.155,1.141-0.888,0.88c-0.403-0.141-1.111-0.222-1.009-0.855C110.047,104.623,110.152,104.002,110.853,103.979z"/>
	<path fill-rule="evenodd" clip-rule="evenodd" d="M7.017,100.008c0.395,0.424,1.24,0.317,1.112,1.043
		c-0.066,0.374-0.168,1.124-0.84,0.944c-0.439-0.117-1.196-0.2-1.088-0.919C6.26,100.682,6.465,100.158,7.017,100.008z"/>
	<path fill-rule="evenodd" clip-rule="evenodd" d="M83.33,103.706c-0.375,0.34-0.237,1.168-0.946,0.975
		c-0.442-0.122-1.222-0.187-1.051-0.956c0.079-0.348,0.141-1.037,0.758-0.9C82.563,102.928,83.142,103.086,83.33,103.706z"/>
	<path fill-rule="evenodd" clip-rule="evenodd" d="M145.483,103.651c-0.29,0.372-0.25,1.107-0.873,1.057
		c-0.442-0.039-1.105-0.249-1.156-0.774c-0.041-0.417,0.199-1.127,0.72-1.127C144.641,102.808,145.228,103.071,145.483,103.651z"/>
	<path fill-rule="evenodd" clip-rule="evenodd" d="M182.716,103.981c-0.309,0.337-0.19,1.093-0.86,1.01
		c-0.459-0.055-1.095-0.265-1.148-0.767c-0.042-0.393,0.172-1.09,0.727-1.094C181.925,103.127,182.464,103.399,182.716,103.981z"/>
	<path fill-rule="evenodd" clip-rule="evenodd" d="M13.555,115.693c0.638-0.151,0.32-1.701,1.525-1.04
		c0.474,0.264,0.991,0.411,0.596,1.188c-0.353,0.688-0.703,0.683-1.252,0.309c-0.277-0.188-0.593-0.316-0.893-0.475
		C13.53,115.673,13.555,115.693,13.555,115.693z"/>
	<path fill-rule="evenodd" clip-rule="evenodd" d="M78.989,115.381c-0.387,0.379-0.28,1.196-0.994,0.982
		c-0.416-0.123-1.128-0.225-1.066-0.825c0.041-0.385,0.177-1.111,0.818-1.025C78.228,114.578,78.769,114.824,78.989,115.381z"/>
	<path fill-rule="evenodd" clip-rule="evenodd" d="M166.387,116.693c0-0.075,0-0.15,0-0.224c-0.037,0.016-0.071,0.033-0.104,0.051
		c0.04,0.066,0.08,0.132,0.122,0.196L166.387,116.693z"/>
</g>
</svg>
